<svg width="42" height="48" viewBox="0 0 42 48" fill="none" xmlns="http://www.w3.org/2000/svg">
<path d="M20.9982 0C19.3388 0 17.9982 1.34062 17.9982 3V4.8C11.1545 6.1875 5.99821 12.2437 5.99821 19.5V21.2625C5.99821 25.6688 4.37633 29.925 1.45133 33.225L0.75758 34.0031C-0.0299195 34.8844 -0.21742 36.15 0.260705 37.2281C0.73883 38.3063 1.81696 39 2.99821 39H38.9982C40.1795 39 41.2482 38.3063 41.7357 37.2281C42.2232 36.15 42.0263 34.8844 41.2388 34.0031L40.5451 33.225C37.6201 29.925 35.9982 25.6781 35.9982 21.2625V19.5C35.9982 12.2437 30.842 6.1875 23.9982 4.8V3C23.9982 1.34062 22.6576 0 20.9982 0ZM25.2451 46.2469C26.3701 45.1219 26.9982 43.5938 26.9982 42H20.9982H14.9982C14.9982 43.5938 15.6263 45.1219 16.7513 46.2469C17.8763 47.3719 19.4045 48 20.9982 48C22.592 48 24.1201 47.3719 25.2451 46.2469Z" fill="white"/>
</svg>
