<svg width="50" height="42" viewBox="0 0 50 42" fill="none" xmlns="http://www.w3.org/2000/svg">
<path d="M4.56596 24.7721L21.8993 40.9544C22.6188 41.6259 23.5684 42 24.5564 42C25.5444 42 26.4941 41.6259 27.2135 40.9544L44.5469 24.7721C47.4629 22.0575 49.1128 18.2494 49.1128 14.2685V13.7122C49.1128 7.00712 44.2687 1.29008 37.6595 0.186965C33.2854 -0.542053 28.8346 0.887206 25.7075 4.01431L24.5564 5.16539L23.4053 4.01431C20.2782 0.887206 15.8274 -0.542053 11.4533 0.186965C4.84413 1.29008 0 7.00712 0 13.7122V14.2685C0 18.2494 1.64988 22.0575 4.56596 24.7721Z" fill="white"/>
</svg>
