<svg width="33" height="48" viewBox="0 0 33 48" fill="none" xmlns="http://www.w3.org/2000/svg">
<path d="M24 36C24.9 33.0094 26.7656 30.4594 28.6125 27.9187C29.1 27.2531 29.5875 26.5875 30.0563 25.9125C31.9125 23.2406 33 20.0063 33 16.5094C33 7.3875 25.6125 0 16.5 0C7.3875 0 0 7.3875 0 16.5C0 19.9969 1.0875 23.2406 2.94375 25.9031C3.4125 26.5781 3.9 27.2438 4.3875 27.9094C6.24375 30.45 8.10938 33.0094 9 35.9906H24V36ZM16.5 48C20.6437 48 24 44.6437 24 40.5V39H9V40.5C9 44.6437 12.3562 48 16.5 48ZM9 16.5C9 17.325 8.325 18 7.5 18C6.675 18 6 17.325 6 16.5C6 10.6969 10.6969 6 16.5 6C17.325 6 18 6.675 18 7.5C18 8.325 17.325 9 16.5 9C12.3562 9 9 12.3562 9 16.5Z" fill="white"/>
</svg>
