<svg width="37" height="48" viewBox="0 0 37 48" fill="none" xmlns="http://www.w3.org/2000/svg">
<path d="M29.7591 4.18195C30.3122 2.89762 29.8997 1.39767 28.7654 0.572703C27.631 -0.252268 26.0842 -0.177271 25.0249 0.741447L1.02573 21.7407C0.0882581 22.5657 -0.24923 23.8875 0.191379 25.05C0.631989 26.2124 1.75695 26.9999 3.00378 26.9999H13.4565L6.24742 43.8181C5.69431 45.1024 6.1068 46.6023 7.24113 47.4273C8.37547 48.2523 9.92229 48.1773 10.9816 47.2586L34.9808 26.2593C35.9182 25.4343 36.2557 24.1125 35.8151 22.95C35.3745 21.7876 34.2589 21.0095 33.0027 21.0095H22.55L29.7591 4.18195Z" fill="white"/>
</svg>
