<svg width="179" height="43" viewBox="0 0 179 43" fill="none" xmlns="http://www.w3.org/2000/svg">
<path d="M29.2464 22V13.42H30.2084V22H29.2464ZM29.6234 22V21.129H34.2904V22H29.6234ZM38.621 22.169C37.997 22.169 37.451 22.065 36.983 21.857C36.515 21.6403 36.125 21.337 35.813 20.947C35.501 20.557 35.2627 20.0933 35.098 19.556C34.942 19.01 34.864 18.4077 34.864 17.749C34.864 16.761 35.0244 15.9333 35.345 15.266C35.6657 14.5987 36.1077 14.096 36.671 13.758C37.243 13.42 37.893 13.251 38.621 13.251C39.193 13.251 39.7044 13.355 40.155 13.563C40.6144 13.7623 41.0044 14.057 41.325 14.447C41.6544 14.837 41.9057 15.3093 42.079 15.864C42.261 16.4187 42.352 17.0513 42.352 17.762C42.352 18.4207 42.274 19.023 42.118 19.569C41.962 20.1063 41.728 20.57 41.416 20.96C41.104 21.3413 40.714 21.6403 40.246 21.857C39.778 22.065 39.2364 22.169 38.621 22.169ZM38.595 21.298C38.881 21.298 39.1844 21.2503 39.505 21.155C39.8257 21.0597 40.1247 20.8863 40.402 20.635C40.688 20.3837 40.9177 20.0283 41.091 19.569C41.273 19.101 41.364 18.4987 41.364 17.762C41.364 16.8953 41.234 16.1977 40.974 15.669C40.7227 15.1403 40.389 14.7547 39.973 14.512C39.5657 14.2607 39.1194 14.135 38.634 14.135C38.3654 14.135 38.0707 14.1827 37.75 14.278C37.438 14.3733 37.1347 14.5467 36.84 14.798C36.554 15.0493 36.3157 15.4133 36.125 15.89C35.943 16.358 35.852 16.9733 35.852 17.736C35.852 18.438 35.9344 19.023 36.099 19.491C36.2637 19.9503 36.476 20.3143 36.736 20.583C37.0047 20.843 37.2994 21.0293 37.62 21.142C37.9494 21.246 38.2744 21.298 38.595 21.298ZM47.479 22.169C46.7857 22.169 46.166 22.0043 45.62 21.675C45.074 21.3457 44.645 20.856 44.333 20.206C44.021 19.5473 43.865 18.7283 43.865 17.749C43.865 17.0557 43.9474 16.436 44.112 15.89C44.2854 15.3353 44.5324 14.863 44.853 14.473C45.1824 14.0743 45.581 13.771 46.049 13.563C46.5257 13.355 47.0717 13.251 47.687 13.251C48.129 13.251 48.5364 13.3117 48.909 13.433C49.2817 13.5457 49.6067 13.719 49.884 13.953C50.17 14.1783 50.3997 14.4643 50.573 14.811C50.7464 15.149 50.859 15.5433 50.911 15.994L49.962 16.215C49.9274 15.8077 49.8364 15.4697 49.689 15.201C49.5417 14.9323 49.3554 14.72 49.13 14.564C48.9134 14.408 48.675 14.2997 48.415 14.239C48.1637 14.1697 47.9124 14.135 47.661 14.135C47.2797 14.135 46.9157 14.2043 46.569 14.343C46.231 14.473 45.9364 14.6853 45.685 14.98C45.4337 15.266 45.2344 15.6387 45.087 16.098C44.9397 16.5487 44.866 17.0947 44.866 17.736C44.866 18.4033 44.944 18.9667 45.1 19.426C45.256 19.8767 45.464 20.2363 45.724 20.505C45.984 20.7737 46.2787 20.9687 46.608 21.09C46.946 21.2113 47.2884 21.272 47.635 21.272C48.129 21.272 48.545 21.1767 48.883 20.986C49.2297 20.7953 49.507 20.5093 49.715 20.128C49.923 19.738 50.053 19.257 50.105 18.685H48.155V17.84H51.054V19.075L51.067 22H50.196L50.469 19.582H50.313C50.209 20.154 50.0357 20.6307 49.793 21.012C49.559 21.3933 49.247 21.6837 48.857 21.883C48.4757 22.0737 48.0164 22.169 47.479 22.169ZM56.3564 22.169C55.7324 22.169 55.1864 22.065 54.7184 21.857C54.2504 21.6403 53.8604 21.337 53.5484 20.947C53.2364 20.557 52.9981 20.0933 52.8334 19.556C52.6774 19.01 52.5994 18.4077 52.5994 17.749C52.5994 16.761 52.7597 15.9333 53.0804 15.266C53.4011 14.5987 53.8431 14.096 54.4064 13.758C54.9784 13.42 55.6284 13.251 56.3564 13.251C56.9284 13.251 57.4397 13.355 57.8904 13.563C58.3497 13.7623 58.7397 14.057 59.0604 14.447C59.3897 14.837 59.6411 15.3093 59.8144 15.864C59.9964 16.4187 60.0874 17.0513 60.0874 17.762C60.0874 18.4207 60.0094 19.023 59.8534 19.569C59.6974 20.1063 59.4634 20.57 59.1514 20.96C58.8394 21.3413 58.4494 21.6403 57.9814 21.857C57.5134 22.065 56.9717 22.169 56.3564 22.169ZM56.3304 21.298C56.6164 21.298 56.9197 21.2503 57.2404 21.155C57.5611 21.0597 57.8601 20.8863 58.1374 20.635C58.4234 20.3837 58.6531 20.0283 58.8264 19.569C59.0084 19.101 59.0994 18.4987 59.0994 17.762C59.0994 16.8953 58.9694 16.1977 58.7094 15.669C58.4581 15.1403 58.1244 14.7547 57.7084 14.512C57.3011 14.2607 56.8547 14.135 56.3694 14.135C56.1007 14.135 55.8061 14.1827 55.4854 14.278C55.1734 14.3733 54.8701 14.5467 54.5754 14.798C54.2894 15.0493 54.0511 15.4133 53.8604 15.89C53.6784 16.358 53.5874 16.9733 53.5874 17.736C53.5874 18.438 53.6697 19.023 53.8344 19.491C53.9991 19.9503 54.2114 20.3143 54.4714 20.583C54.7401 20.843 55.0347 21.0293 55.3554 21.142C55.6847 21.246 56.0097 21.298 56.3304 21.298ZM65.5675 22V21.142H68.1025C68.5532 21.142 68.9475 21.0597 69.2855 20.895C69.6235 20.7303 69.9052 20.4963 70.1305 20.193C70.3558 19.8897 70.5248 19.53 70.6375 19.114C70.7502 18.698 70.8065 18.2387 70.8065 17.736C70.8065 17.242 70.7545 16.787 70.6505 16.371C70.5552 15.9463 70.3905 15.578 70.1565 15.266C69.9225 14.954 69.6062 14.7113 69.2075 14.538C68.8175 14.3647 68.3235 14.278 67.7255 14.278H65.5675V13.42H67.7125C68.6572 13.42 69.4285 13.589 70.0265 13.927C70.6332 14.265 71.0795 14.7503 71.3655 15.383C71.6515 16.0157 71.7945 16.7697 71.7945 17.645C71.7945 18.321 71.7208 18.906 71.5735 19.4C71.4262 19.8853 71.2268 20.297 70.9755 20.635C70.7242 20.973 70.4382 21.2417 70.1175 21.441C69.8055 21.6403 69.4762 21.7833 69.1295 21.87C68.7828 21.9567 68.4448 22 68.1155 22H65.5675ZM65.0345 22V13.42H65.9965V22H65.0345ZM73.5531 22V13.42H74.5151V22H73.5531ZM73.9431 22V21.142H79.3511V22H73.9431ZM73.9431 18.035V17.203H78.7401V18.035H73.9431ZM73.9431 14.278V13.42H79.3511V14.278H73.9431ZM83.9886 22V13.42H84.9506V22H83.9886ZM84.3656 22V21.129H89.0326V22H84.3656ZM89.8758 22L92.9308 13.42H94.3088L97.3638 22H96.3368L93.6848 14.265H93.5678L90.9288 22H89.8758ZM91.2408 19.998V19.205H96.1158V19.998H91.2408ZM104.84 22.169C104.294 22.169 103.808 22.1083 103.384 21.987C102.959 21.8657 102.604 21.6837 102.318 21.441C102.032 21.1983 101.824 20.8993 101.694 20.544C101.564 20.18 101.516 19.764 101.551 19.296L102.448 19.14C102.404 19.6513 102.478 20.0673 102.669 20.388C102.868 20.7 103.158 20.9297 103.54 21.077C103.921 21.2243 104.363 21.298 104.866 21.298C105.36 21.298 105.78 21.2373 106.127 21.116C106.482 20.986 106.751 20.8083 106.933 20.583C107.123 20.349 107.219 20.076 107.219 19.764C107.219 19.4087 107.106 19.1313 106.881 18.932C106.664 18.7327 106.378 18.581 106.023 18.477C105.676 18.3643 105.299 18.2647 104.892 18.178C104.502 18.1 104.116 18.009 103.735 17.905C103.362 17.7923 103.02 17.6493 102.708 17.476C102.396 17.3027 102.144 17.073 101.954 16.787C101.772 16.501 101.681 16.1413 101.681 15.708C101.681 15.214 101.802 14.785 102.045 14.421C102.296 14.0483 102.647 13.7623 103.098 13.563C103.557 13.355 104.09 13.251 104.697 13.251C105.303 13.251 105.841 13.3507 106.309 13.55C106.777 13.7407 107.149 14.031 107.427 14.421C107.704 14.811 107.843 15.3007 107.843 15.89L106.907 16.072C106.924 15.7513 106.876 15.4697 106.764 15.227C106.66 14.9757 106.508 14.7677 106.309 14.603C106.109 14.4383 105.871 14.317 105.594 14.239C105.316 14.1523 105.009 14.109 104.671 14.109C104.263 14.109 103.908 14.174 103.605 14.304C103.301 14.4253 103.063 14.603 102.89 14.837C102.716 15.0623 102.63 15.331 102.63 15.643C102.63 16.0157 102.751 16.306 102.994 16.514C103.236 16.722 103.548 16.8823 103.93 16.995C104.32 17.1077 104.731 17.2117 105.165 17.307C105.537 17.385 105.901 17.4803 106.257 17.593C106.612 17.697 106.933 17.8357 107.219 18.009C107.513 18.1823 107.743 18.412 107.908 18.698C108.081 18.9753 108.168 19.3263 108.168 19.751C108.168 20.245 108.038 20.674 107.778 21.038C107.526 21.3933 107.154 21.6707 106.66 21.87C106.166 22.0693 105.559 22.169 104.84 22.169ZM113.257 22.169C112.633 22.169 112.087 22.065 111.619 21.857C111.151 21.6403 110.761 21.337 110.449 20.947C110.137 20.557 109.898 20.0933 109.734 19.556C109.578 19.01 109.5 18.4077 109.5 17.749C109.5 16.761 109.66 15.9333 109.981 15.266C110.301 14.5987 110.743 14.096 111.307 13.758C111.879 13.42 112.529 13.251 113.257 13.251C113.829 13.251 114.34 13.355 114.791 13.563C115.25 13.7623 115.64 14.057 115.961 14.447C116.29 14.837 116.541 15.3093 116.715 15.864C116.897 16.4187 116.988 17.0513 116.988 17.762C116.988 18.4207 116.91 19.023 116.754 19.569C116.598 20.1063 116.364 20.57 116.052 20.96C115.74 21.3413 115.35 21.6403 114.882 21.857C114.414 22.065 113.872 22.169 113.257 22.169ZM113.231 21.298C113.517 21.298 113.82 21.2503 114.141 21.155C114.461 21.0597 114.76 20.8863 115.038 20.635C115.324 20.3837 115.553 20.0283 115.727 19.569C115.909 19.101 116 18.4987 116 17.762C116 16.8953 115.87 16.1977 115.61 15.669C115.358 15.1403 115.025 14.7547 114.609 14.512C114.201 14.2607 113.755 14.135 113.27 14.135C113.001 14.135 112.706 14.1827 112.386 14.278C112.074 14.3733 111.77 14.5467 111.476 14.798C111.19 15.0493 110.951 15.4133 110.761 15.89C110.579 16.358 110.488 16.9733 110.488 17.736C110.488 18.438 110.57 19.023 110.735 19.491C110.899 19.9503 111.112 20.3143 111.372 20.583C111.64 20.843 111.935 21.0293 112.256 21.142C112.585 21.246 112.91 21.298 113.231 21.298ZM122.336 22.169C121.729 22.169 121.187 22.0693 120.711 21.87C120.234 21.6707 119.831 21.3847 119.502 21.012C119.172 20.6307 118.921 20.1713 118.748 19.634C118.583 19.088 118.501 18.477 118.501 17.801C118.501 17.1077 118.587 16.4837 118.761 15.929C118.943 15.3657 119.198 14.8847 119.528 14.486C119.857 14.0873 120.251 13.784 120.711 13.576C121.179 13.3593 121.699 13.251 122.271 13.251C122.73 13.251 123.146 13.3203 123.519 13.459C123.9 13.589 124.225 13.7753 124.494 14.018C124.762 14.2607 124.975 14.5553 125.131 14.902C125.287 15.2487 125.369 15.6387 125.378 16.072L124.455 16.267C124.455 15.799 124.355 15.409 124.156 15.097C123.965 14.7763 123.705 14.538 123.376 14.382C123.046 14.2173 122.674 14.135 122.258 14.135C121.885 14.135 121.53 14.2087 121.192 14.356C120.862 14.5033 120.568 14.7243 120.308 15.019C120.056 15.3137 119.857 15.6907 119.71 16.15C119.562 16.6007 119.489 17.1423 119.489 17.775C119.489 18.5723 119.606 19.231 119.84 19.751C120.082 20.2623 120.416 20.6437 120.841 20.895C121.274 21.1463 121.785 21.272 122.375 21.272C122.912 21.272 123.354 21.168 123.701 20.96C124.047 20.752 124.307 20.4573 124.481 20.076C124.663 19.686 124.758 19.218 124.767 18.672L125.664 18.841C125.664 19.309 125.594 19.7423 125.456 20.141C125.326 20.5397 125.122 20.895 124.845 21.207C124.576 21.5103 124.234 21.7487 123.818 21.922C123.402 22.0867 122.908 22.169 122.336 22.169ZM127.191 22V13.42H128.166V22H127.191ZM130.2 22V13.42H131.162V22H130.2ZM130.59 22V21.142H135.998V22H130.59ZM130.59 18.035V17.203H135.387V18.035H130.59ZM130.59 14.278V13.42H135.998V14.278H130.59ZM133.177 12.432H132.306L133.177 10.638H134.308L133.177 12.432ZM139.638 22V13.42H140.613V22H139.638ZM137.038 14.291V13.42H143.213V14.291H137.038ZM144.533 22V13.42H145.495V22H144.533ZM144.923 22V21.142H150.331V22H144.923ZM144.923 18.035V17.203H149.72V18.035H144.923ZM144.923 14.278V13.42H150.331V14.278H144.923ZM147.51 12.432H146.639L147.51 10.638H148.641L147.51 12.432Z" fill="#B7B7B7"/>
<rect x="0.5" y="5.5" width="178" height="25" stroke="#B7B7B7"/>
</svg>
